<svg xmlns="http://www.w3.org/2000/svg" xml:space="preserve" id="Ebene_1" x="0" y="0" version="1.1" viewBox="0 0 100 100">
  <style>
    .st4{opacity:.7;fill:#fff}.st6{fill:#9bc2e9}
  </style>
  <linearGradient id="SVGID_1_" x1="80.511688" x2="19.48831" y1="-9.923077" y2="109.923073" gradientTransform="matrix(1 0 0 -1 0 100)" gradientUnits="userSpaceOnUse">
    <stop offset="0" stop-color="#2eb5e8"/>
    <stop offset="1" stop-color="#2e89e8"/>
  </linearGradient>
  <path fill="url(#SVGID_1_)" d="M0 0h100v100H0V0z"/>
  <g fill="#fff" fill-rule="evenodd" clip-rule="evenodd">
    <path d="M57.196285 70.88813c0 .833382-.00748 1.609719.009705 2.38372.001636.083352.12894.187157.220825.239648 1.119907.655342 2.24496 1.304962 3.368374 1.95446 1.734688 1.002304 3.469261 2.005783 5.203949 3.007034 1.22956.710052 2.45398 1.427002 3.691368 2.12104.28431.15992.395592.335625.391617.666687-.017655 1.468155-.007942 2.93853-.007942 4.509438-4.314225-2.488693-8.561573-4.938576-12.88712-7.434174 0 .831047-.02338 1.561676.017761 2.290085.009701.1529.232865.335617.40015.433815 3.999638 2.320831 8.001496 4.638268 12.015397 6.936417.359001.20539.469238.426918.462341.82193-.023384 1.253524-.00795 2.506927-.00795 3.758117v.614197c-.222686-.114098-.369407-.180382-.508049-.260223-5.407821-3.1223-10.812725-6.246933-16.227443-9.35894-.333283-.191842-.450886-.39267-.450302-.778565.013687-6.249153.00912-12.496086.00912-18.74524v-.568492c.239178.130112.411488.219189.579358.317386 4.699405 2.711274 9.398342 5.423722 14.097744 8.136284.720344.415467 1.446998.81842 2.153076 1.256798.154663.095978.331062.311775.33387.474968.023376 1.484055.01146 2.968224.006897 4.454498 0 .043488-.026886.087906-.055992.173592-4.268395-2.465896-8.519253-4.920341-12.816754-7.40448z"/>
    <path d="M79.368004 89.488304V74.605217c-.71695.413246-1.372292.768272-1.995606 1.173569-.116432.075279-.145546.348129-.145546.530845-.00795 4.609856-.014259 9.220764.003983 13.829453.001175.444107-.126145.680366-.516007.893821-1.241485.680481-2.45842 1.406434-3.745613 2.15191-.0159-.195222-.036468-.333283-.036468-.470292-.001755-6.295913 0-12.593117-.007485-18.890205-.000587-.31504.068505-.509102.363686-.678139 5.455757-3.137146 10.903427-6.28563 16.353455-9.429668.125083-.073063.257995-.130112.465263-.232865v.605076c0 5.863266.00058 11.72548-.001167 17.587578 0 .216972-.001755.388115.003387.59362.019402.8722-.188911 1.189583-.82766 1.517258-1.007446.517166-1.97036 1.119904-2.953842 1.68383-.138763.079964-.285469.1473-.488647.25122v-14.85923c-.752838.439546-1.429337.812806-2.076622 1.23295-.101578.066161-.099236.333396-.099236.508048-.005157 3.040116-.003982 6.079064-.003982 9.119179 0 1.633575.003982 3.26609-.008072 4.899773-.00058.160972-.053658.402961-.165527.469123-1.328225.793404-2.672455 1.561791-4.118294 2.396233z" opacity=".75"/>
    <path d="M72.295754 71.344742c-.457314.441887-.695328.399566-1.376275.006897-5.446044-3.146263-10.892677-6.290306-16.338134-9.434227-.285946-.165531-.56791-.334572-.937783-.55259.203755-.137008.34591-.241985.498932-.328724 5.611462-3.243293 11.224213-6.48214 16.830063-9.731159.324867-.189495.567436-.209953.90364-.013675 5.636712 3.265033 11.280793 6.519779 16.9237 9.776748.119353.069672.23123.150685.412193.269455-.170678.116432-.300316.21568-.439545.29681-5.35299 3.093773-10.40638 6.087014-15.762177 9.17962-.431602.313995-.393257.293418-.714614.530845zm-9.893181-10.002716c.240238.155243.368118.243152.502323.320774 2.686146 1.550335 5.376377 3.09261 8.055736 4.657787.3424.199784.591866.21463.943505.00795 2.677024-1.565178 5.368423-3.107452 8.053993-4.660007.145645-.083352.279152-.184937.468643-.313996-.156998-.115265-.258583-.204342-.371506-.270508-2.76049-1.597095-5.524833-3.187412-8.279602-4.793625-.296226-.17348-.50396-.09703-.761375.053654-2.668022 1.548-5.34224 3.08688-8.011784 4.630318-.174766.100536-.344856.211239-.599933.367653z" opacity=".55"/>
  </g>
  <path d="M29.589289 8.41945c.111742.321029-.12318.390899-.340336.500875-1.131956.573265-2.278248 1.12228-3.382164 1.745912-1.70756.964646-3.077314 2.328002-4.309727 3.835537-1.218107 1.49004-2.304456 3.067701-3.165073 4.794142-1.068424 2.143316-1.794514 4.398533-2.071476 6.776176-.172047 1.47697-.329486 2.970886-.297918 4.453036.05841 2.74237.887416 5.247535 2.799135 7.29391.797924.85413 1.767473 1.497494 2.84498 1.965947.12675.055107.265772.091789.37727.168674.071863.049557.156309.169842.140272.235123-.019581.0797-.129656.1543-.217364.19466-.068802.031662-.1631.008679-.246073.008686-3.015335.000191-6.030695-.006798-9.04599.004284-.988761.003636-1.888713-.236255-2.52088-1.017711-.32565-.402558-.487594-.93755-.72351-1.412693V36.80394c.017202-.021183.043644-.03981.050298-.063904.814277-2.948932 1.627064-5.898271 2.439995-8.847574.523824-1.90043 1.045583-3.801435 1.57214-5.701109.77351-2.790605 1.550336-5.580293 2.326036-8.370292.35391-1.272921.604083-2.587374 1.58145-3.590785.961956-.987592 2.062973-1.69344 3.471072-1.823602 2.448244.003066 4.896486.007128 7.344726.00569.101803-.00006.203573-.051518.30536-.07903h.332019l.735758.086117z" class="st4"/>
  <path fill="#b6d4f5" d="M41.145905 8.421746c-.002556-.029471-.00512-.058943-.00768-.088413h10.375588a.425573.425573 0 0 0 .00338.076258c-3.457092.004073-6.914192.008114-10.371288.012155z"/>
  <path d="M20.871426 8.406673a.577313.577313 0 0 0 .013654-.07334h7.636433c-.101788.027513-.203558.07897-.30536.079031-2.448241.001437-4.896483-.002624-7.344727-.00569zM29.589289 8.41945l-.735758-.086117h.747042l-.011284.086118z" class="st6"/>
  <path d="M41.145905 8.421746c3.457096-.004041 6.914196-.008082 10.371288-.012155 1.535324.248929 2.515037 1.193036 2.607422 2.711893.040527.666398-.162312 1.364393-.34127 2.024558-.996197 3.67496-2.015824 7.343582-3.033486 11.0127-1.1208 4.04098-2.240418 8.08232-3.375713 12.119243-.618168 2.198093-2.106003 3.499542-4.292878 4.037758-.25119.06182-.519851.072574-.780479.073055-2.697247.004993-5.39452.006184-8.09172-.005943-.142472-.000641-.28436-.130486-.426514-.20018.111824-.093781.20921-.236004.337585-.274273 3.361328-1.00208 5.876076-3.136673 7.960907-5.874993 1.80729-2.373787 3.20572-4.961813 4.147122-7.787752.651722-1.956373 1.01961-3.971523 1.156436-6.03658.109826-1.657527.012886-3.285653-.43872-4.879486-.84855-2.994723-2.69078-5.15189-5.54668-6.416517-.251973-.111576-.351575-.23266-.2533-.491328z" class="st4"/>
  <g>
    <path fill="#fff" d="M56.535427 52.131401c-.168827.030258-.33759.086292-.506489.086712-1.392994.003471-2.78601-.002789-4.17902-.00748-.37064-.001252-.630043-.228173-.647773-.56078-.018917-.35474.249027-.630589.622295-.63076.910439-.00042 1.820873.003242 2.731308.004932.052738.0001.10548-.002686.19178-.00505l-.142338-.142339c-2.912838-2.912841-2.822723-2.822658-5.73547-5.735595-.237216-.237232-.292209-.501297-.158626-.754757.17897-.339573.62732-.4241.917698-.172165.041248.03579.078598.076119.11729.11481 2.898812 2.898728 2.79459 2.79451 5.69336 5.69328l.152786.152787c.002178-.08291.00497-.137799.004868-.192685-.001744-.910438-.003021-1.820877-.006417-2.731308-.000923-.246997.103684-.435604.316658-.552177.203366-.111317.414257-.098831.609147.028301.190769.124447.26762.31033.267986.535023.001663 1.019878.00547 2.039757.008308 3.059631.00105.378105.010723.756516-.001873 1.134178-.005657.169632-.056354.337761-.086613.506573-.05629.05629-.112579.11258-.168865.16887z"/>
  </g>
</svg>
